<svg width="209" height="54" viewBox="0 0 209 54" fill="none" xmlns="http://www.w3.org/2000/svg">
<path d="M21.437 40.076C21.3957 40.138 21.344 40.1897 21.282 40.231C21.2407 40.293 21.1787 40.3447 21.096 40.386C21.0133 40.448 20.9617 40.4997 20.941 40.541C20.631 40.3757 20.5173 40.1173 20.6 39.766C20.8067 38.588 20.972 37.8337 21.096 37.503C21.6747 35.767 22.243 34.2067 22.801 32.822C22.9043 32.574 23.793 30.4453 25.467 26.436C25.4877 26.3947 25.6427 26.0227 25.932 25.32C25.6427 25.2373 25.498 25.196 25.498 25.196C21.0547 26.1053 16.787 27.18 12.695 28.42C12.4883 28.7713 12.385 28.9573 12.385 28.978C8.62367 36.976 5.46167 43.7237 2.899 49.221C2.837 49.345 2.47533 50.1613 1.814 51.67C1.79333 51.67 1.752 51.7527 1.69 51.918C1.60733 52.104 1.54533 52.2383 1.504 52.321C1.29733 52.7137 1.04933 52.8687 0.76 52.786C0.388 52.6827 0.181333 52.4553 0.14 52.104C0.119333 51.7527 0.150333 51.4323 0.233 51.143C0.522333 50.151 0.770333 49.4277 0.977 48.973C2.87833 44.6123 4.56267 40.7993 6.03 37.534C6.03 37.534 7.12533 35.1883 9.316 30.497C9.316 30.4763 9.46067 30.1353 9.75 29.474C9.316 29.536 9.08867 29.567 9.068 29.567C6.93933 30.2697 4.945 30.931 3.085 31.551C2.48567 31.737 2.13433 31.675 2.031 31.365C1.907 31.0343 2.08267 30.7553 2.558 30.528C3.09533 30.2387 3.57067 30.0217 3.984 29.877C4.728 29.6083 6.712 28.885 9.936 27.707C9.936 27.707 10.184 27.6243 10.68 27.459C11.0107 26.7977 11.1863 26.4567 11.207 26.436C11.8063 25.0927 12.9843 22.4887 14.741 18.624C16.4977 14.7387 17.8617 11.7317 18.833 9.603C19.1017 8.983 19.4117 8.37333 19.763 7.774C19.9697 7.42267 20.2487 7.35033 20.6 7.557C20.786 7.82567 20.786 8.24933 20.6 8.828C20.3313 9.696 20.073 10.4607 19.825 11.122C18.5643 14.6147 16.632 19.337 14.028 25.289C14.028 25.3097 13.873 25.692 13.563 26.436C13.6663 26.4773 13.7697 26.5083 13.873 26.529C13.9763 26.529 14.059 26.5187 14.121 26.498C14.2037 26.4773 14.2967 26.4567 14.4 26.436C14.524 26.3947 14.6067 26.3637 14.648 26.343C15.33 26.1983 16.4977 25.9297 18.151 25.537C19.8043 25.1237 21.0753 24.8137 21.964 24.607C22.15 24.5657 23.7 24.2453 26.614 23.646C26.9033 23.088 27.0583 22.7987 27.079 22.778C29.559 17.384 30.861 14.563 30.985 14.315C31.357 13.5297 32.008 12.3103 32.938 10.657C33.124 10.347 33.434 9.93367 33.868 9.417C34.0127 9.25167 34.209 9.107 34.457 8.983C34.7463 8.859 34.9633 8.91067 35.108 9.138C35.2113 9.30333 35.2423 9.48933 35.201 9.696C35.1803 9.758 35.1493 9.82 35.108 9.882C35.0873 9.92333 35.046 9.98533 34.984 10.068C34.9427 10.13 34.9117 10.1817 34.891 10.223C33.7337 12.4137 33.1137 13.5917 33.031 13.757C32.535 14.7903 31.264 17.5907 29.218 22.158C29.1973 22.1787 29.0527 22.5507 28.784 23.274C29.3213 23.2327 30.1067 23.15 31.14 23.026C32.194 22.902 32.969 22.8297 33.465 22.809C33.961 22.7677 34.7257 22.7677 35.759 22.809C35.8003 22.9537 35.79 23.057 35.728 23.119C35.6867 23.1603 35.604 23.212 35.48 23.274C35.294 23.336 35.0977 23.4083 34.891 23.491C34.6843 23.553 34.4673 23.6047 34.24 23.646C34.0127 23.6873 33.8163 23.7287 33.651 23.77C33.4857 23.7907 33.2687 23.8217 33 23.863C32.7313 23.9043 32.535 23.9353 32.411 23.956C31.9977 24.018 31.388 24.111 30.582 24.235C29.776 24.359 29.187 24.452 28.815 24.514C28.7943 24.514 28.5463 24.5863 28.071 24.731C27.637 25.7023 27.3993 26.219 27.358 26.281C26.924 27.3143 26.1077 29.257 24.909 32.109C23.7103 34.9403 22.7907 37.131 22.15 38.681C21.9433 39.177 21.7057 39.642 21.437 40.076ZM46.8606 26.901C47.0466 27.0043 47.088 27.18 46.9846 27.428C46.6953 28.1513 46.2096 28.73 45.5276 29.164C44.6183 29.7427 43.6366 30.0837 42.5826 30.187C42.5 30.2077 41.8076 30.2593 40.5056 30.342C40.485 30.3627 40.3816 30.497 40.1956 30.745C40.0303 30.993 39.896 31.179 39.7926 31.303C38.7593 32.7497 37.5503 33.814 36.1656 34.496C35.3183 34.9093 34.5743 35.116 33.9336 35.116C33.231 35.0953 32.673 34.8783 32.2596 34.465C31.8463 34.0723 31.65 33.535 31.6706 32.853C31.6913 32.3157 31.805 31.7887 32.0116 31.272C32.239 30.6933 32.5696 30.0837 33.0036 29.443C33.913 28.0583 35.0703 26.7047 36.4756 25.382C37.0956 24.762 37.6846 24.421 38.2426 24.359C38.2633 24.3383 38.4803 24.235 38.8936 24.049C39.2243 23.9043 39.4 23.8217 39.4206 23.801C40.2886 23.5323 40.9706 23.6253 41.4666 24.08C41.9833 24.514 42.221 25.072 42.1796 25.754C42.159 26.312 42.035 26.9217 41.8076 27.583C41.7456 27.707 41.663 27.9033 41.5596 28.172C41.477 28.42 41.4046 28.6267 41.3426 28.792C42.3553 28.9367 43.399 28.823 44.4736 28.451C44.7423 28.3477 45.011 28.2133 45.2796 28.048C45.5483 27.8827 45.8376 27.676 46.1476 27.428C46.4783 27.18 46.716 27.0043 46.8606 26.901ZM34.6776 33.349C36.2896 32.9357 37.7363 31.861 39.0176 30.125C38.5423 29.8357 38.2116 29.6393 38.0256 29.536C37.8603 29.4327 37.6743 29.2777 37.4676 29.071C37.2816 28.8437 37.1473 28.6473 37.0646 28.482C37.0026 28.3167 36.8683 28.0067 36.6616 27.552C36.579 27.5727 36.5376 27.583 36.5376 27.583C35.3183 28.9263 34.378 30.373 33.7166 31.923C33.51 32.3983 33.4686 32.8117 33.5926 33.163C33.882 33.3077 34.068 33.3903 34.1506 33.411C34.254 33.4317 34.4296 33.411 34.6776 33.349ZM40.7846 26.467C40.8673 26.1983 40.888 25.94 40.8466 25.692C40.826 25.6507 40.7123 25.4647 40.5056 25.134C39.5963 25.3407 38.997 25.9917 38.7076 27.087C38.563 27.583 38.7076 27.955 39.1416 28.203C39.1623 28.203 39.4103 28.3063 39.8856 28.513C40.2576 28.0583 40.5573 27.3763 40.7846 26.467ZM54.7867 28.792C54.766 29.164 54.7557 29.3603 54.7557 29.381C54.3217 30.1043 53.9704 30.6417 53.7017 30.993C53.2884 31.5303 52.6064 32.388 51.6557 33.566C50.7257 34.7233 50.023 35.612 49.5477 36.232C49.2377 36.6247 48.7934 37.2137 48.2147 37.999C47.6567 38.805 47.233 39.3837 46.9437 39.735C46.5717 40.231 46.4167 40.8407 46.4787 41.564C46.6234 43.052 46.6854 44.261 46.6647 45.191C46.6234 47.3403 45.962 49.2623 44.6807 50.957C43.9574 51.9077 43.11 52.6413 42.1387 53.158C41.498 53.5093 40.878 53.6437 40.2787 53.561C39.824 53.499 39.4624 53.3337 39.1937 53.065C38.9044 52.7963 38.7287 52.445 38.6667 52.011C38.6047 51.453 38.6254 50.9777 38.7287 50.585C38.9767 49.6757 39.2557 48.88 39.5657 48.198C39.8964 47.4953 40.3717 46.6377 40.9917 45.625C41.0744 45.5217 42.18 43.7857 44.3087 40.417C44.3087 40.3963 44.4637 40.138 44.7737 39.642C44.4017 38.34 44.2157 37.689 44.2157 37.689C43.6784 35.7877 43.3477 34.279 43.2237 33.163C42.9964 31.0137 43.7404 29.2363 45.4557 27.831C46.1997 27.211 46.954 26.7563 47.7187 26.467C48.2147 26.3017 48.659 26.2603 49.0517 26.343C49.4444 26.4257 49.7027 26.653 49.8267 27.025C49.93 27.2937 49.837 27.5933 49.5477 27.924C49.279 27.5313 49.1344 27.304 49.1137 27.242C48.6797 27.3247 48.4524 27.366 48.4317 27.366C47.0677 27.9653 46.0137 28.8747 45.2697 30.094C44.8564 30.7553 44.66 31.4477 44.6807 32.171C44.722 33.8243 45.094 35.6843 45.7967 37.751C45.7967 37.751 45.869 37.8233 46.0137 37.968C46.489 37.3687 46.737 37.0587 46.7577 37.038C48.659 34.5373 50.4054 32.4603 51.9967 30.807C52.4514 30.3523 52.9267 29.908 53.4227 29.474C53.8567 29.0813 54.3114 28.854 54.7867 28.792ZM44.8977 47.919C45.435 46.4723 45.5487 44.6743 45.2387 42.525C44.8667 43.0003 44.6704 43.2483 44.6497 43.269C43.699 44.757 43.0687 45.749 42.7587 46.245C41.932 47.5883 41.3224 48.632 40.9297 49.376C40.7644 49.7067 40.537 50.3163 40.2477 51.205C40.1237 51.577 40.2167 51.8767 40.5267 52.104C40.9607 52.166 41.5084 51.98 42.1697 51.546C43.389 50.7193 44.2984 49.5103 44.8977 47.919ZM62.2659 11.68C60.5093 16.764 58.0913 22.9433 55.0119 30.218C54.9293 30.404 54.6709 31.0757 54.2369 32.233C54.2369 32.2537 54.2576 32.3053 54.2989 32.388C54.3609 32.3467 54.4229 32.3053 54.4849 32.264C54.5469 32.202 54.5986 32.14 54.6399 32.078C54.6813 31.9953 54.7226 31.9333 54.7639 31.892C54.8053 31.83 54.8466 31.7577 54.8879 31.675C54.9293 31.5923 54.9603 31.52 54.9809 31.458C56.8823 28.358 59.3003 25.4337 62.2349 22.685C62.5243 22.4163 62.8756 22.1477 63.2889 21.879C63.6403 21.6517 63.9813 21.662 64.3119 21.91C64.6219 22.1787 64.7149 22.5093 64.5909 22.902C64.4463 23.336 64.2706 23.6977 64.0639 23.987C63.0099 25.4543 62.2763 26.4257 61.8629 26.901C61.6356 27.1697 60.2923 28.637 57.8329 31.303C57.0889 32.109 56.6239 32.6773 56.4379 33.008C56.4586 33.0907 56.4999 33.2147 56.5619 33.38C56.6446 33.5247 56.7066 33.659 56.7479 33.783C56.8099 33.907 56.8616 34.0207 56.9029 34.124C57.6676 35.6327 58.6596 37.348 59.8789 39.27C60.9536 40.944 61.7596 42.2563 62.2969 43.207C62.5656 43.6823 62.8859 44.4573 63.2579 45.532C63.3406 45.8213 63.3716 45.997 63.3509 46.059C63.3303 46.1417 63.2269 46.3587 63.0409 46.71C62.7929 46.586 62.6586 46.5137 62.6379 46.493C62.3279 46.183 62.1213 45.935 62.0179 45.749C61.7699 45.2737 61.4599 44.757 61.0879 44.199C60.7366 43.641 60.4266 43.176 60.1579 42.804C59.9099 42.432 59.5586 41.9257 59.1039 41.285C58.6493 40.665 58.3186 40.2 58.1119 39.89C56.6239 37.7613 55.6009 36.0253 55.0429 34.682C54.6916 35.0333 54.5056 35.2193 54.4849 35.24C54.2369 35.6533 53.8856 36.2527 53.4309 37.038C52.9556 37.8233 52.6043 38.402 52.3769 38.774C52.1496 39.1667 51.9119 39.4973 51.6639 39.766C51.2919 40.2 50.8993 40.3033 50.4859 40.076C50.1139 39.8693 49.9589 39.518 50.0209 39.022C50.0829 38.5053 50.1759 38.0713 50.2999 37.72C51.2093 35.116 51.8293 33.411 52.1599 32.605C52.7799 31.0963 53.6686 28.978 54.8259 26.25C55.9833 23.5013 56.7789 21.5897 57.2129 20.515C58.4943 17.4357 59.3313 15.3277 59.7239 14.191C60.0959 13.1577 60.6643 11.711 61.4289 9.851C62.2143 7.991 62.7413 6.69933 63.0099 5.976C63.0926 5.76933 63.5679 4.643 64.4359 2.597C64.4359 2.57633 64.4463 2.55566 64.4669 2.535C64.6116 2.163 64.8183 1.93567 65.0869 1.853C65.2316 2.163 65.3039 2.32833 65.3039 2.349C65.2833 2.61767 65.2109 2.92767 65.0869 3.279C63.5576 7.88767 62.6173 10.688 62.2659 11.68ZM71.0205 29.257C71.0619 29.6497 71.0825 29.8563 71.0825 29.877C71.0412 30.435 70.7725 31.0137 70.2765 31.613C69.6359 32.3777 68.8919 32.9977 68.0445 33.473C67.1972 33.9277 66.2465 34.2583 65.1925 34.465C64.6759 34.5683 64.2005 34.465 63.7665 34.155C63.3532 33.8657 63.0845 33.442 62.9605 32.884C62.8572 32.4087 62.8779 31.9333 63.0225 31.458C63.2499 30.6727 63.5392 29.9287 63.8905 29.226C64.4899 28.0273 65.4199 26.2293 66.6805 23.832C66.7012 23.8113 66.8665 23.6253 67.1765 23.274C67.6932 23.3567 67.9102 23.6253 67.8275 24.08C67.7655 24.452 67.6519 24.8343 67.4865 25.227C67.3005 25.6817 67.0215 26.343 66.6495 27.211C66.2982 28.0583 66.0399 28.668 65.8745 29.04C65.5645 29.7633 65.2545 30.5487 64.9445 31.396C64.7585 31.892 64.7482 32.3157 64.9135 32.667C65.3889 32.7083 65.6369 32.7187 65.6575 32.698C67.3522 32.4087 68.7472 31.644 69.8425 30.404C69.8839 30.342 69.9459 30.2697 70.0285 30.187C70.1112 30.0837 70.1732 30.001 70.2145 29.939C70.2765 29.8563 70.3489 29.7737 70.4315 29.691C70.5142 29.6083 70.6072 29.536 70.7105 29.474C70.8139 29.3913 70.9172 29.319 71.0205 29.257ZM67.9205 20.887C67.6519 20.763 67.4659 20.5667 67.3625 20.298C67.2179 20.0087 67.2075 19.6883 67.3315 19.337C67.4762 18.965 67.7139 18.655 68.0445 18.407C68.3545 18.1797 68.7162 18.0247 69.1295 17.942C69.2122 17.942 69.2949 17.9523 69.3775 17.973C69.4602 17.9937 69.5532 18.035 69.6565 18.097C69.7805 18.1383 69.8839 18.1693 69.9665 18.19C69.9459 18.252 69.9149 18.3347 69.8735 18.438C69.8529 18.5413 69.8322 18.624 69.8115 18.686C69.7909 18.7273 69.7599 18.7687 69.7185 18.81C69.2432 19.1613 68.8712 19.8227 68.6025 20.794C68.5405 20.794 68.4579 20.8147 68.3545 20.856C68.2512 20.8767 68.1685 20.887 68.1065 20.887C68.0652 20.887 68.0032 20.887 67.9205 20.887ZM84.505 27.242C84.6084 27.7587 84.505 28.2237 84.195 28.637C83.6784 29.2983 83.265 29.784 82.955 30.094C81.7357 31.2513 80.351 32.1607 78.801 32.822C78.181 33.0907 77.6024 33.2457 77.065 33.287C76.383 33.349 75.8354 33.1837 75.422 32.791C75.0294 32.3983 74.833 31.861 74.833 31.179C74.8537 30.8897 74.9467 30.373 75.112 29.629C75.1327 29.567 75.2877 29.1123 75.577 28.265C75.1637 28.575 74.957 28.7403 74.957 28.761C74.709 29.009 74.337 29.4017 73.841 29.939C73.3657 30.4763 72.9937 30.8897 72.725 31.179C72.1257 31.799 71.6504 32.2847 71.299 32.636C71.0304 32.884 70.6997 33.1217 70.307 33.349C69.811 33.659 69.3564 33.6693 68.943 33.38C68.4677 33.07 68.2817 32.6153 68.385 32.016C68.4264 31.6647 68.5194 31.3133 68.664 30.962C68.9327 30.342 69.2427 29.6807 69.594 28.978C70.1727 27.8 70.8547 26.4257 71.64 24.855C71.6607 24.8343 71.8054 24.6277 72.074 24.235C72.446 24.235 72.6217 24.3797 72.601 24.669C72.5597 25.3097 72.4977 25.754 72.415 26.002C72.353 26.188 71.8984 27.3557 71.051 29.505C71.051 29.5257 70.9994 29.629 70.896 29.815C70.8134 30.001 70.7514 30.1663 70.71 30.311C70.6894 30.435 70.6894 30.5797 70.71 30.745C71.206 30.311 71.4644 30.0837 71.485 30.063C71.795 29.7323 72.1464 29.3603 72.539 28.947C72.9317 28.513 73.3244 28.079 73.717 27.645C74.1304 27.211 74.4817 26.8287 74.771 26.498C75.2257 26.0227 75.7114 25.537 76.228 25.041C76.476 24.793 76.7034 24.6173 76.91 24.514C77.282 24.328 77.623 24.328 77.933 24.514C78.2637 24.7 78.429 25.01 78.429 25.444C78.4084 25.816 78.3154 26.2397 78.15 26.715C78.026 27.0457 77.8504 27.49 77.623 28.048C77.3957 28.606 77.2407 28.9987 77.158 29.226C76.972 29.7427 76.8274 30.1973 76.724 30.59C76.724 30.6313 76.724 30.931 76.724 31.489C77.158 31.5717 77.3957 31.613 77.437 31.613C77.5404 31.613 77.6954 31.582 77.902 31.52C80.5474 30.5693 82.5107 29.2053 83.792 27.428C83.792 27.4073 83.9574 27.1903 84.288 26.777C84.4327 27.087 84.505 27.242 84.505 27.242ZM129.953 10.285C129.974 10.2643 129.995 10.223 130.015 10.161C130.036 10.0783 130.046 10.0267 130.046 10.006C130.067 9.96467 130.088 9.913 130.108 9.851C130.15 9.789 130.181 9.74766 130.201 9.727C130.222 9.68567 130.253 9.634 130.294 9.572C130.336 9.51 130.367 9.45833 130.387 9.417C130.429 9.37567 130.48 9.33433 130.542 9.293C130.604 9.25167 130.666 9.21033 130.728 9.169C130.873 9.83033 130.873 10.626 130.728 11.556C130.48 13.0647 130.015 14.7387 129.333 16.578C127.907 20.4633 126.13 24.0387 124.001 27.304C123.009 28.8333 122.028 30.063 121.056 30.993C120.23 31.799 119.434 32.419 118.669 32.853C117.615 33.4523 116.572 33.7313 115.538 33.69C114.484 33.6487 113.627 33.318 112.965 32.698C112.325 32.078 111.963 31.241 111.88 30.187C111.798 29.195 111.932 28.0377 112.283 26.715C112.304 26.6117 112.5 25.878 112.872 24.514C112.769 24.5553 112.676 24.607 112.593 24.669C112.531 24.731 112.469 24.8033 112.407 24.886C112.345 24.948 112.294 25.01 112.252 25.072C112.211 25.1133 112.159 25.1753 112.097 25.258C112.056 25.3407 112.025 25.4027 112.004 25.444C109.938 28.3787 108.016 30.838 106.238 32.822C103.614 35.736 101.289 37.9267 99.2635 39.394C98.4988 39.9313 97.5895 40.5307 96.5355 41.192C95.9568 41.5227 95.3368 41.7087 94.6755 41.75C93.9728 41.7913 93.4045 41.6157 92.9705 41.223C92.5571 40.8303 92.3298 40.3343 92.2885 39.735C92.2265 39.115 92.2471 38.433 92.3505 37.689C92.5365 36.6143 92.9498 35.2607 93.5905 33.628C94.8925 30.404 96.5665 27.0767 98.6125 23.646C101.175 19.2853 103.965 14.9763 106.982 10.719C108.036 9.21033 109.049 8.00133 110.02 7.092C110.537 6.61667 111.012 6.23433 111.446 5.945C111.798 5.71766 112.17 5.58333 112.562 5.542C113.058 5.48 113.461 5.59366 113.771 5.883C114.081 6.17233 114.247 6.57533 114.267 7.092C114.267 7.11267 114.236 7.185 114.174 7.309C114.092 7.309 114.03 7.309 113.988 7.309C113.968 7.28833 113.937 7.247 113.895 7.185C113.854 7.10233 113.823 7.061 113.802 7.061C113.513 6.70967 113.255 6.52367 113.027 6.503C112.8 6.46167 112.511 6.57533 112.159 6.844C111.808 7.11267 111.519 7.39167 111.291 7.681C109.989 9.21033 109.204 10.1817 108.935 10.595C107.695 12.393 106.249 14.594 104.595 17.198C102.053 21.2487 99.9971 24.7827 98.4265 27.8C97.0418 30.4453 95.9775 32.76 95.2335 34.744C94.9648 35.4673 94.6445 36.511 94.2725 37.875C94.1691 38.2677 94.1175 38.5467 94.1175 38.712C94.1381 38.8773 94.2001 39.2183 94.3035 39.735C94.3448 39.735 94.4171 39.735 94.5205 39.735C94.6238 39.7557 94.6961 39.766 94.7375 39.766C94.7995 39.766 94.8718 39.7557 94.9545 39.735C95.6778 39.4043 96.2461 39.1047 96.6595 38.836C98.4781 37.658 100.235 36.2217 101.929 34.527C104.947 31.551 107.489 28.5647 109.555 25.568C109.865 25.134 111.725 22.344 115.135 17.198C115.156 17.1567 115.249 17.012 115.414 16.764C115.58 16.4953 115.714 16.299 115.817 16.175C115.983 15.927 116.138 15.7513 116.282 15.648C116.654 15.3587 117.037 15.3277 117.429 15.555C117.781 15.7617 117.946 16.0717 117.925 16.485C117.925 16.7123 117.884 16.95 117.801 17.198C117.553 17.9213 117.305 18.6033 117.057 19.244C115.755 22.6953 114.887 25.258 114.453 26.932C114.35 27.3453 114.216 28.0583 114.05 29.071C114.009 29.2983 114.009 29.5877 114.05 29.939C114.112 31.0963 114.722 31.6957 115.879 31.737C116.603 31.7577 117.264 31.582 117.863 31.21C118.628 30.7347 119.32 30.2387 119.94 29.722C120.746 29.0193 121.583 28.0377 122.451 26.777C125.572 22.1683 127.907 17.2497 129.457 12.021C129.767 10.9257 129.933 10.347 129.953 10.285ZM140.587 26.901C140.773 27.0043 140.815 27.18 140.711 27.428C140.422 28.1513 139.936 28.73 139.254 29.164C138.345 29.7427 137.363 30.0837 136.309 30.187C136.227 30.2077 135.534 30.2593 134.232 30.342C134.212 30.3627 134.108 30.497 133.922 30.745C133.757 30.993 133.623 31.179 133.519 31.303C132.486 32.7497 131.277 33.814 129.892 34.496C129.045 34.9093 128.301 35.116 127.66 35.116C126.958 35.0953 126.4 34.8783 125.986 34.465C125.573 34.0723 125.377 33.535 125.397 32.853C125.418 32.3157 125.532 31.7887 125.738 31.272C125.966 30.6933 126.296 30.0837 126.73 29.443C127.64 28.0583 128.797 26.7047 130.202 25.382C130.822 24.762 131.411 24.421 131.969 24.359C131.99 24.3383 132.207 24.235 132.62 24.049C132.951 23.9043 133.127 23.8217 133.147 23.801C134.015 23.5323 134.697 23.6253 135.193 24.08C135.71 24.514 135.948 25.072 135.906 25.754C135.886 26.312 135.762 26.9217 135.534 27.583C135.472 27.707 135.39 27.9033 135.286 28.172C135.204 28.42 135.131 28.6267 135.069 28.792C136.082 28.9367 137.126 28.823 138.2 28.451C138.469 28.3477 138.738 28.2133 139.006 28.048C139.275 27.8827 139.564 27.676 139.874 27.428C140.205 27.18 140.443 27.0043 140.587 26.901ZM128.404 33.349C130.016 32.9357 131.463 31.861 132.744 30.125C132.269 29.8357 131.938 29.6393 131.752 29.536C131.587 29.4327 131.401 29.2777 131.194 29.071C131.008 28.8437 130.874 28.6473 130.791 28.482C130.729 28.3167 130.595 28.0067 130.388 27.552C130.306 27.5727 130.264 27.583 130.264 27.583C129.045 28.9263 128.105 30.373 127.443 31.923C127.237 32.3983 127.195 32.8117 127.319 33.163C127.609 33.3077 127.795 33.3903 127.877 33.411C127.981 33.4317 128.156 33.411 128.404 33.349ZM134.511 26.467C134.594 26.1983 134.615 25.94 134.573 25.692C134.553 25.6507 134.439 25.4647 134.232 25.134C133.323 25.3407 132.724 25.9917 132.434 27.087C132.29 27.583 132.434 27.955 132.868 28.203C132.889 28.203 133.137 28.3063 133.612 28.513C133.984 28.0583 134.284 27.3763 134.511 26.467ZM152.454 26.901C152.64 27.0043 152.682 27.18 152.578 27.428C152.289 28.1513 151.803 28.73 151.121 29.164C150.212 29.7427 149.23 30.0837 148.176 30.187C148.094 30.2077 147.401 30.2593 146.099 30.342C146.079 30.3627 145.975 30.497 145.789 30.745C145.624 30.993 145.49 31.179 145.386 31.303C144.353 32.7497 143.144 33.814 141.759 34.496C140.912 34.9093 140.168 35.116 139.527 35.116C138.825 35.0953 138.267 34.8783 137.853 34.465C137.44 34.0723 137.244 33.535 137.264 32.853C137.285 32.3157 137.399 31.7887 137.605 31.272C137.833 30.6933 138.163 30.0837 138.597 29.443C139.507 28.0583 140.664 26.7047 142.069 25.382C142.689 24.762 143.278 24.421 143.836 24.359C143.857 24.3383 144.074 24.235 144.487 24.049C144.818 23.9043 144.994 23.8217 145.014 23.801C145.882 23.5323 146.564 23.6253 147.06 24.08C147.577 24.514 147.815 25.072 147.773 25.754C147.753 26.312 147.629 26.9217 147.401 27.583C147.339 27.707 147.257 27.9033 147.153 28.172C147.071 28.42 146.998 28.6267 146.936 28.792C147.949 28.9367 148.993 28.823 150.067 28.451C150.336 28.3477 150.605 28.2133 150.873 28.048C151.142 27.8827 151.431 27.676 151.741 27.428C152.072 27.18 152.31 27.0043 152.454 26.901ZM140.271 33.349C141.883 32.9357 143.33 31.861 144.611 30.125C144.136 29.8357 143.805 29.6393 143.619 29.536C143.454 29.4327 143.268 29.2777 143.061 29.071C142.875 28.8437 142.741 28.6473 142.658 28.482C142.596 28.3167 142.462 28.0067 142.255 27.552C142.173 27.5727 142.131 27.583 142.131 27.583C140.912 28.9263 139.972 30.373 139.31 31.923C139.104 32.3983 139.062 32.8117 139.186 33.163C139.476 33.3077 139.662 33.3903 139.744 33.411C139.848 33.4317 140.023 33.411 140.271 33.349ZM146.378 26.467C146.461 26.1983 146.482 25.94 146.44 25.692C146.42 25.6507 146.306 25.4647 146.099 25.134C145.19 25.3407 144.591 25.9917 144.301 27.087C144.157 27.583 144.301 27.955 144.735 28.203C144.756 28.203 145.004 28.3063 145.479 28.513C145.851 28.0583 146.151 27.3763 146.378 26.467ZM162.59 4.953C162.59 5.03567 162.59 5.077 162.59 5.077C162.342 5.49033 162.094 5.96567 161.846 6.503C161.598 7.04033 161.412 7.45366 161.288 7.743C161.184 8.03233 160.988 8.55933 160.699 9.324C160.43 10.068 160.275 10.5123 160.234 10.657C158.105 16.361 156.658 20.267 155.894 22.375C155.212 24.2143 154.509 26.2913 153.786 28.606C153.352 29.9907 153.155 31.2203 153.197 32.295C153.217 32.8943 153.3 33.411 153.445 33.845C153.693 34.713 154.271 35.1057 155.181 35.023C155.573 35.0023 156.007 34.9093 156.483 34.744C156.627 34.682 156.782 34.6097 156.948 34.527C157.134 34.465 157.33 34.3823 157.537 34.279C157.743 34.1757 157.909 34.1033 158.033 34.062C158.053 34.0413 158.363 33.907 158.963 33.659C159.149 33.8037 159.18 33.9587 159.056 34.124C158.126 35.2813 156.896 36.015 155.367 36.325C154.54 36.4903 153.817 36.4077 153.197 36.077C152.597 35.7463 152.143 35.1987 151.833 34.434C151.585 33.814 151.419 33.1113 151.337 32.326C151.192 31.024 151.326 29.5773 151.74 27.986C152.236 26.002 152.918 23.925 153.786 21.755C155.522 17.3737 157.227 13.137 158.901 9.045C159.128 8.487 159.645 7.39167 160.451 5.759C160.74 5.201 161.081 4.798 161.474 4.55C161.701 4.40533 161.897 4.364 162.063 4.426C162.228 4.488 162.404 4.66367 162.59 4.953ZM173.195 30.032C173.257 29.9907 173.371 29.908 173.536 29.784C173.722 29.6393 173.887 29.5257 174.032 29.443C174.177 29.3603 174.342 29.2983 174.528 29.257C174.425 29.5877 174.373 29.7633 174.373 29.784C173.216 31.7267 171.48 32.9357 169.165 33.411C168.855 33.473 168.411 33.442 167.832 33.318C167.047 33.1527 166.561 32.667 166.375 31.861C166.375 31.8403 166.344 31.6543 166.282 31.303C166.117 31.2203 165.931 31.272 165.724 31.458C164.215 32.76 163.42 33.442 163.337 33.504C162.882 33.8553 162.2 34.2997 161.291 34.837C161.002 35.023 160.661 35.147 160.268 35.209C159.71 35.3123 159.255 35.1987 158.904 34.868C158.553 34.558 158.408 34.1137 158.47 33.535C158.532 33.0183 158.677 32.5223 158.904 32.047C159.276 31.2617 159.679 30.559 160.113 29.939C161.291 28.2443 162.686 26.6737 164.298 25.227C164.753 24.8137 165.207 24.4727 165.662 24.204C165.993 23.9767 166.365 23.8217 166.778 23.739C167.212 23.6357 167.594 23.708 167.925 23.956C168.276 24.1833 168.483 24.514 168.545 24.948C168.607 25.4027 168.566 25.9607 168.421 26.622C168.4 26.7047 168.225 27.2213 167.894 28.172C168.266 28.6267 168.38 29.3087 168.235 30.218C168.235 30.28 168.214 30.404 168.173 30.59C168.132 30.7553 168.101 30.8793 168.08 30.962C168.08 31.0447 168.08 31.1583 168.08 31.303C168.101 31.427 168.132 31.5407 168.173 31.644C168.338 31.8507 168.638 31.954 169.072 31.954C169.733 31.9333 170.353 31.7577 170.932 31.427C171.263 31.241 172.017 30.776 173.195 30.032ZM167.119 27.8C167.14 27.676 167.171 27.428 167.212 27.056C167.253 26.684 167.264 26.3637 167.243 26.095C167.243 25.8263 167.181 25.5577 167.057 25.289C165.838 25.785 164.319 27.211 162.5 29.567C162.087 30.1043 161.797 30.4867 161.632 30.714C161.467 30.9207 161.25 31.2617 160.981 31.737C160.733 32.1917 160.547 32.6463 160.423 33.101C160.774 33.101 161.167 32.9253 161.601 32.574C162.676 31.706 163.73 30.8277 164.763 29.939C164.866 29.8563 165.652 29.1433 167.119 27.8ZM184.012 27.707C184.012 27.707 184.157 27.7173 184.446 27.738C184.736 27.738 184.942 27.7897 185.066 27.893C184.839 28.203 184.622 28.4097 184.415 28.513C184.229 28.6163 183.95 28.6887 183.578 28.73C182.752 28.7713 182.111 28.699 181.656 28.513C181.594 28.4717 181.016 28.1617 179.92 27.583C178.66 29.0297 177.978 29.815 177.874 29.939C177.606 30.249 177.213 30.7347 176.696 31.396C176.18 32.0367 175.777 32.5223 175.487 32.853C175.219 33.1837 174.878 33.5247 174.464 33.876C174.113 34.1653 173.731 34.2067 173.317 34C172.945 33.814 172.79 33.473 172.852 32.977C172.873 32.6877 172.925 32.3673 173.007 32.016C173.545 30.094 174.454 27.9447 175.735 25.568C175.88 25.2787 176.118 24.9583 176.448 24.607C176.717 24.297 177.037 24.2453 177.409 24.452C177.616 24.7 177.657 25.0823 177.533 25.599C177.141 25.847 176.851 26.2397 176.665 26.777C176.521 27.149 176.314 27.6657 176.045 28.327C175.797 28.9677 175.642 29.3603 175.58 29.505C175.58 29.505 175.539 29.7427 175.456 30.218C176.076 29.4947 176.397 29.1227 176.417 29.102C178.546 26.7047 179.889 25.2063 180.447 24.607C180.675 24.3383 180.943 24.1007 181.253 23.894C181.646 23.6253 182.018 23.646 182.369 23.956C182.721 24.266 182.803 24.638 182.617 25.072C182.555 25.196 182.411 25.4337 182.183 25.785C182.121 25.8677 182.039 25.9917 181.935 26.157C181.832 26.3017 181.76 26.4153 181.718 26.498C181.698 26.498 181.667 26.5703 181.625 26.715C181.625 27.025 181.801 27.2213 182.152 27.304C182.607 27.428 183.227 27.5623 184.012 27.707ZM208.046 0.551C208.314 0.633666 208.511 0.809332 208.635 1.078C208.759 1.326 208.779 1.61533 208.697 1.946C208.552 2.46266 208.366 3 208.139 3.558C206.713 7.13333 205.855 9.231 205.566 9.851C202.962 15.5137 200.471 22.0443 198.095 29.443C196.71 33.721 195.656 37.5443 194.933 40.913C194.912 40.9337 194.881 41.006 194.84 41.13C194.819 41.2747 194.798 41.3677 194.778 41.409C194.778 41.4503 194.757 41.5227 194.716 41.626C194.695 41.75 194.674 41.8327 194.654 41.874C194.633 41.936 194.592 42.0083 194.53 42.091C194.488 42.1737 194.437 42.2357 194.375 42.277C194.333 42.339 194.271 42.401 194.189 42.463C193.879 42.4837 193.651 42.3287 193.507 41.998C193.259 41.4813 193.207 40.8097 193.352 39.983C193.848 37.2757 194.189 35.5707 194.375 34.868C194.499 34.3307 195.232 31.7163 196.576 27.025C196.576 27.025 196.72 26.5393 197.01 25.568C196.927 25.568 196.844 25.5887 196.762 25.63C196.7 25.6713 196.648 25.7127 196.607 25.754C196.565 25.7953 196.514 25.8573 196.452 25.94C196.41 26.0227 196.379 26.0743 196.359 26.095C194.767 28.1823 192.845 30.187 190.593 32.109C188.919 33.535 187.296 34.5167 185.726 35.054C185.064 35.2607 184.517 35.3847 184.083 35.426C183.318 35.488 182.77 35.2917 182.44 34.837C182.088 34.403 182.037 33.8243 182.285 33.101C182.471 32.5637 182.729 32.0677 183.06 31.613C184.713 29.2983 186.955 27.4177 189.787 25.971C189.931 25.909 190.159 25.8263 190.469 25.723C192.019 25.227 193.217 25.4647 194.065 26.436C194.457 26.0433 194.664 25.8367 194.685 25.816C196.462 23.5633 198.084 21.0523 199.552 18.283C199.655 18.097 199.851 17.6527 200.141 16.95C200.637 15.7307 201.267 14.191 202.032 12.331C202.817 10.471 203.551 8.704 204.233 7.03C204.935 5.33533 205.576 3.78533 206.155 2.38C206.382 1.84267 206.578 1.43967 206.744 1.171C207.095 0.571665 207.529 0.364999 208.046 0.551ZM193.414 27.304C193.414 27.304 193.527 27.149 193.755 26.839C193.259 26.3223 192.639 26.1467 191.895 26.312C191.171 26.4567 190.407 26.808 189.601 27.366C187.927 28.5233 186.49 29.815 185.292 31.241C185.085 31.5097 184.682 32.1193 184.083 33.07C183.917 33.3387 183.938 33.566 184.145 33.752C184.496 33.69 184.682 33.659 184.703 33.659C185.984 33.3077 187.214 32.7083 188.392 31.861C190.066 30.6623 191.74 29.1433 193.414 27.304Z" fill="#B1B1B1"/>
</svg>
