<?xml version="1.0" encoding="utf-8"?>
<!-- Generator: Adobe Illustrator 23.0.3, SVG Export Plug-In . SVG Version: 6.00 Build 0)  -->
<svg version="1.1" id="Capa_1" xmlns="http://www.w3.org/2000/svg" xmlns:xlink="http://www.w3.org/1999/xlink" x="0px" y="0px"
	 viewBox="0 0 209 54" style="enable-background:new 0 0 209 54;" xml:space="preserve">
<style type="text/css">
	.st0{fill:#B1B1B1;}
</style>
<path class="st0" d="M5.6,44.9c-2.1,0-3.5-1.7-4.1-3.2c-1.1-2.6-0.8-5.9-0.5-8.5c0.4-2.8,1.1-5.8,2.2-9.3C5,18.2,7.6,12.5,10.9,7
	c0,0,0,0,0.1,0c0.4,0,1.2,0.6,1.6,1.3c0.1,0.2,0.3,0.6,0.1,0.9c-3.3,5.3-5.8,11-7.7,16.9c-0.9,2.9-1.5,5.5-1.9,7.9
	c-0.3,1.8-0.4,3.4-0.4,4.9l0,0.4c0,2,0.1,3.2,0.8,3.6C3.8,42.9,4,43,4.2,43c1.1,0,2.6-1.1,3.8-2.1c1-0.8,1.8-1.6,2.8-2.6
	c1.8-1.9,3.4-4,5.1-6.1c7-9,12.9-18.8,18.6-28.3c0.1-0.1,0.2-0.2,0.3-0.2c0.5,0,1.3,0.6,1.7,1.2c0.2,0.3,0.2,0.5,0.1,0.6l-0.1,0.1
	c-3.7,6.2-7.6,12.7-11.7,18.8c-4.1,6.1-7.7,11.1-11.9,15.6c-1.9,2-4.1,4.2-6.6,4.8C6.2,44.9,5.9,44.9,5.6,44.9L5.6,44.9z"/>
<path class="st0" d="M33.4,23.5c-0.4,0-1.1-0.4-1.5-1.1c-0.3-0.4-0.4-0.7-0.3-0.9c0.7-2.4,1.7-4.8,2.9-7c0.1-0.1,0.2-0.2,0.3-0.2
	c0.5,0,1.3,0.6,1.6,1.2c0.2,0.3,0.2,0.6,0.2,0.7c-1.3,2.3-2.3,4.7-3,7.2C33.5,23.5,33.5,23.5,33.4,23.5z"/>
<path class="st0" d="M56.6,50.3c-0.6,0-2-1.1-2-1.8c-0.1-5.2,0.6-10.4,2-16.1l0.3-1l-9.4,4.1c-0.3,0.1-0.6,0.3-1,0.4
	c-1.6,0.7-3.5,1.6-5.2,1.6c-0.9,0-1.6-0.2-2.3-0.6c-1-0.6-1.6-1.5-1.8-2.6l-0.2-0.8l-1,0.8c-0.5,0.4-1,0.7-1.5,1.1l-0.4,0.3
	c-1.5,1-3.2,2.1-4.9,2.5c-0.2,0-0.4,0.1-0.5,0.1c-1.7,0-3.3-1.6-3.3-3.4c-0.1-2.1,1.4-4.6,2.6-6.6l0.4-0.7c0.1-0.1,0.2-0.2,0.3-0.2
	c0.5,0,1.3,0.6,1.6,1.2c0.2,0.3,0.2,0.5,0.1,0.7c-1.2,2-1.9,3.6-2.6,5.3c-0.1,0.2-0.2,0.5-0.3,0.8l-0.3,0.8l0.8-0.1
	c2.2-0.4,6.4-2.6,9.1-4.5l0.1-0.1l0.1-0.1c0.7-2,2.5-3.9,4.7-3.9c0.7,0,1.3,0.2,2,0.6c0.7,0.4,1.4,1.1,1.3,1.6
	c0,0.2-0.1,0.3-0.3,0.3c-0.1,0-0.3,0-0.4-0.1c-0.4-0.2-0.8-0.4-1.3-0.4c-2.4,0-3.8,3.7-3.9,4.1c-0.3,0.9-0.3,1.5-0.1,1.9
	c0.2,0.2,0.4,0.4,0.7,0.4c2.9-0.3,12.9-3.8,16.7-5.5l0.2-0.1l0.1-0.2c1.3-4.4,3-8.9,5.3-14.3l0.3-0.7l-0.8,0c-5.5,0.3-11.1,1-16.5,2
	c0,0,0,0,0,0c-0.5,0-1.2-0.5-1.7-1.2c-0.3-0.5-0.4-0.8-0.3-0.8c6.7-1.3,13.4-2,20-2.2l0.3,0l0.1-0.3c1.2-2.7,2.5-5.4,3.7-7.9
	C68,4,68,4,68.2,4c0.5,0,1.2,0.5,1.6,1.2C70,5.4,70.1,5.7,70,5.9c-0.9,1.9-1.8,3.8-2.7,5.7L67,12.3l0.8,0c0.8,0,1.6,0,2.4,0
	c5.4,0,11,0.3,15.7,2.8c0.6,0.3,1.3,1.1,1.3,1.6c0,0.2-0.1,0.3-0.3,0.3l0,0c-0.1,0-0.3,0-0.5-0.1c-3.1-1.6-6.4-2-9.9-2.2
	c-2.6-0.2-5.2-0.3-7.7-0.3c-0.7,0-1.4,0-2.2,0l-0.3,0l-0.3,0.3c-4.6,10.2-9.3,22.4-9.1,35.4C56.7,50.2,56.7,50.3,56.6,50.3
	L56.6,50.3z"/>
<path class="st0" d="M65.9,39.1c-0.9,0-1.6-0.4-2.4-1.2c-0.9-1-1.3-2.2-1-3.6c0.6-3.3,4.5-6.8,7.1-8.1c0,0,0.1,0,0.2,0
	c0.5,0,1.3,0.7,1.6,1.4c0,0.1,0.2,0.5,0.1,0.6l-0.2,0.2l0.1,0.3c0.1,0.2,0.1,0.3,0.1,0.5c0.3,2.9-0.5,5.7-2.2,7.9
	C68.3,38.4,67.1,39.1,65.9,39.1z M68.6,30.2c-0.6,0.5-1.1,1.1-1.6,1.7c-0.6,0.8-1.1,1.6-1.5,2.4c-0.2,0.4-0.4,0.8-0.5,1.2
	c0,0.1-0.1,0.3-0.1,0.5l0,0.3l-0.2,1.3l1-0.9c0.2-0.1,0.3-0.2,0.5-0.3c0.3-0.2,0.6-0.4,0.9-0.7c0.7-0.7,1.3-1.6,1.7-2.5
	c0.4-0.8,0.6-1.7,0.8-2.6l0.2-1.4L68.6,30.2z"/>
<path class="st0" d="M74.6,39.2c-0.4,0-1.1-0.5-1.5-1.1c-0.2-0.4-0.4-0.7-0.3-0.9c0.5-1.4,1.1-2.8,1.6-4.2c0.8-2,1.6-4,2.3-6
	c0-0.1,0.1-0.1,0.2-0.1c0.5,0,1.6,0.8,1.8,1.6l0.2,0.7l0.6-0.4c1.3-1,2.5-1.5,3.6-1.5c1.2,0,2.2,0.7,3.1,2.1
	c0.2,0.3,0.2,0.5,0.1,0.6c0,0-0.1,0.1-0.3,0.1c0,0,0,0,0,0c-0.4,0-0.8-0.3-1.2-0.7l-0.1-0.2h-0.2c-0.6,0-1.7,0.6-3.2,1.7
	c-0.8,0.6-1.6,1.3-2.4,2.2c-1.7,1.8-3,3.8-4,5.9C74.8,39.2,74.7,39.2,74.6,39.2z"/>
<path class="st0" d="M114.2,47.7c-0.3,0-1-0.4-1.5-1c-0.3-0.4-0.5-0.8-0.5-1.1c1.9-11.6,5.3-23,10.3-33.7c0.1-0.1,0.1-0.2,0.3-0.2
	c0.5,0,1.2,0.5,1.6,1.2c0.2,0.3,0.3,0.6,0.2,0.8c-1.4,3.1-2.8,6.3-4,9.6l-0.6,1.5l1.3-1c0.5-0.4,1-0.7,1.6-1c0,0,0.1,0,0.2,0
	c0.6,0,1.5,0.9,1.7,1.6c0.1,0.4-0.1,0.5-0.2,0.5c-2.4,1.3-5.4,4.1-5.9,7.3c-0.1,0.4-0.1,0.9,0.2,1.2c0.3,0.3,0.7,0.4,1.2,0.4
	c0.1,0,0.3,0,0.4,0c0.5,0,1-0.1,1.6-0.2c1.5-0.3,3-0.9,4-1.4c5.4-2.3,9.8-6.3,12.2-10.9c1.8-3.4,2.3-7.1,1.3-9.9
	c-0.7-1.9-2-3.4-3.9-4.3c-1.6-0.8-3.4-1.1-5.4-1.1c-4.3,0-8.8,1.8-11.8,3.2c-2.8,1.3-5.1,2.7-7,4.4c-1.1,0.9-2.1,1.9-2.9,2.9
	c-0.4,0.5-0.8,1-1.2,1.7c-0.9,1.5-0.9,1.6-0.7,1.9c0.3,0.5,0.3,0.8,0.3,0.9c0,0.1-0.2,0.1-0.3,0.1c-0.4,0-0.9-0.3-1.3-0.8
	c-1.8-2.9,0.9-5.9,3.9-8.4c2.7-2.4,6.2-4.3,10.5-5.9c3.2-1.2,6.3-1.8,9.1-1.8c4.5,0,8.1,1.5,10.7,4.6c4.6,5.4,2.6,12.8-1.4,17.8
	c-2.2,2.7-5,5-8.3,6.8c-2.2,1.1-5,2.5-7.7,2.5l0,0c-0.4,0-0.8,0-1.2-0.1c-1.2-0.2-2.3-0.8-3.1-1.6l-0.6-0.6l-0.2,0.9
	C115.9,38.8,115,43.2,114.2,47.7L114.2,47.7z"/>
<path class="st0" d="M149.4,23.5c-0.4,0-1.1-0.4-1.5-1.1c-0.3-0.4-0.4-0.7-0.3-0.9c0.7-2.4,1.7-4.8,2.9-7c0.1-0.1,0.2-0.2,0.3-0.2
	c0.5,0,1.3,0.6,1.6,1.2c0.2,0.3,0.2,0.6,0.2,0.7c-1.3,2.3-2.3,4.7-3,7.2C149.5,23.5,149.5,23.5,149.4,23.5z"/>
<path class="st0" d="M177.9,50.3c-0.6,0-2-1.1-2-1.8c-0.1-5.1,0.6-10.3,2-15.9l0.3-1.1l-1,0.5c-2.3,1.2-4.5,2.6-6.5,3.8
	c-0.4,0.2-0.8,0.5-1.2,0.8c-1.4,0.9-2.8,1.9-4.3,2.2c-0.2,0-0.3,0.1-0.5,0.1c-0.7,0-1.4-0.3-1.8-0.9c-0.5-0.6-0.7-1.3-0.6-2
	c0.2-1,0.5-2,1.2-3.3l0.7-1.5l-1.4,0.8c-3.3,1.9-6.3,4.3-8.8,7.3c-0.1,0.1-0.2,0.1-0.2,0.1c-0.3,0-0.8-0.4-1.2-0.9
	c-0.4-0.6-0.6-1.1-0.5-1.2c0.2-0.7,0.4-1.4,0.7-2.2l0.5-1.5l-1.3,0.9l-0.4,0.3c-0.2,0.2-0.4,0.3-0.6,0.4l-0.4,0.3
	c-1.5,1-3.2,2.1-4.9,2.5c-0.2,0-0.4,0.1-0.5,0.1c-1.7,0-3.3-1.6-3.3-3.4c-0.1-2.1,1.4-4.6,2.6-6.6l0.4-0.7c0.1-0.1,0.2-0.2,0.3-0.2
	c0.5,0,1.3,0.6,1.6,1.2c0.2,0.3,0.2,0.5,0.1,0.7c-1.2,2-1.9,3.6-2.6,5.3c-0.1,0.2-0.2,0.5-0.3,0.8l-0.3,0.8l0.8-0.1
	c2.2-0.4,7.3-3,10.2-5.3l0.1-0.1l0-0.1c0.2-0.4,0.4-0.8,0.7-1.2c0.1-0.1,0.2-0.2,0.3-0.2c0.5,0,1.3,0.6,1.6,1.2
	c0.2,0.3,0.2,0.5,0.1,0.7l-0.1,0.2l0.7,0.7c2.6-1.8,5.4-3.1,8.3-4c0.1,0,0.1,0,0.2,0c0.5,0,1.2,0.5,1.5,1.1c0.1,0.2,0.3,0.7,0.1,1
	c-1.1,1.8-2,3.5-2.7,5l-0.7,1.3l1.3-0.7c2.4-1.2,4.9-2.3,7.4-3.4c1.6-0.7,3.2-1.4,4.8-2.2l0.2-0.1l0.1-0.2c1.3-4.3,3-8.9,5.3-14.2
	l0.3-0.7l-0.8,0c-5.5,0.3-11.1,1-16.5,2c0,0,0,0,0,0c-0.5,0-1.2-0.5-1.7-1.2c-0.3-0.5-0.4-0.8-0.3-0.8c6.7-1.3,13.4-2,20-2.2l0.3,0
	l0.1-0.3c1.3-2.8,2.6-5.5,3.7-7.9c0.1-0.1,0.1-0.2,0.3-0.2c0.5,0,1.2,0.5,1.6,1.2c0.2,0.3,0.3,0.6,0.2,0.8c-0.9,1.9-1.8,3.8-2.7,5.7
	l-0.3,0.7l0.8,0c0.8,0,1.6,0,2.4,0c5.4,0,11,0.3,15.7,2.8c0.6,0.3,1.3,1.1,1.3,1.6c0,0.2-0.1,0.3-0.3,0.3l0,0c-0.1,0-0.3,0-0.5-0.1
	c-3.1-1.6-6.4-2-9.9-2.2c-2.6-0.2-5.2-0.3-7.7-0.3c-0.7,0-1.4,0-2.2,0l-0.3,0l-0.3,0.3c-4.6,10.2-9.3,22.4-9.1,35.4
	C178,50.2,177.9,50.3,177.9,50.3L177.9,50.3z"/>
<path class="st0" d="M187.1,39.1c-0.9,0-1.6-0.4-2.4-1.2c-0.9-1-1.3-2.2-1-3.6c0.6-3.3,4.5-6.8,7.1-8.1c0,0,0.1,0,0.2,0
	c0.5,0,1.3,0.7,1.6,1.4c0,0.1,0.2,0.5,0.1,0.6l-0.2,0.2l0.1,0.3c0.1,0.2,0.1,0.3,0.1,0.5c0.3,2.9-0.5,5.7-2.2,7.9
	C189.5,38.4,188.3,39.1,187.1,39.1z M189.8,30.2c-0.6,0.5-1.1,1.1-1.6,1.7c-0.6,0.8-1.1,1.6-1.5,2.4c-0.2,0.4-0.4,0.8-0.5,1.2
	c0,0.1-0.1,0.3-0.1,0.5l-0.3,1.6l1-0.9c0.2-0.1,0.3-0.2,0.5-0.3c0.3-0.2,0.6-0.4,0.9-0.7c0.7-0.7,1.3-1.6,1.7-2.5
	c0.4-0.8,0.6-1.7,0.8-2.6l0.2-1.4L189.8,30.2z"/>
</svg>
